<?xml version="1.0"?>
<svg xmlns="http://www.w3.org/2000/svg" xmlns:xlink="http://www.w3.org/1999/xlink">
    <symbol id="icon-search" viewBox="0 0 24 24" width="15px" height="15px">
      <path d="M 9 2 C 5.1458514 2 2 5.1458514 2 9 C 2 12.854149 5.1458514 16 9 16 C 10.747998 16 12.345009 15.348024 13.574219 14.28125 L 14 14.707031 L 14 16 L 19.585938 21.585938 C 20.137937 22.137937 21.033938 22.137938 21.585938 21.585938 C 22.137938 21.033938 22.137938 20.137938 21.585938 19.585938 L 16 14 L 14.707031 14 L 14.28125 13.574219 C 15.348024 12.345009 16 10.747998 16 9 C 16 5.1458514 12.854149 2 9 2 z M 9 4 C 11.773268 4 14 6.2267316 14 9 C 14 11.773268 11.773268 14 9 14 C 6.2267316 14 4 11.773268 4 9 C 4 6.2267316 6.2267316 4 9 4 z"/>
    </symbol>
    
    <symbol id="icon-reset" viewBox="0 0 460.775 460.775" width="15px" height="15px" fill="#000">
        <path d="M285.08,230.397L456.218,59.27c6.076-6.077,6.076-15.911,0-21.986L423.511,4.565c-2.913-2.911-6.866-4.55-10.992-4.55
          c-4.127,0-8.08,1.639-10.993,4.55l-171.138,171.14L59.25,4.565c-2.913-2.911-6.866-4.55-10.993-4.55
          c-4.126,0-8.08,1.639-10.992,4.55L4.558,37.284c-6.077,6.075-6.077,15.909,0,21.986l171.138,171.128L4.575,401.505
          c-6.074,6.077-6.074,15.911,0,21.986l32.709,32.719c2.911,2.911,6.865,4.55,10.992,4.55c4.127,0,8.08-1.639,10.994-4.55
          l171.117-171.12l171.118,171.12c2.913,2.911,6.866,4.55,10.993,4.55c4.128,0,8.081-1.639,10.992-4.55l32.709-32.719
          c6.074-6.075,6.074-15.909,0-21.986L285.08,230.397z"/>
    </symbol>
</svg>
