<svg xmlns="http://www.w3.org/2000/svg" xmlns:xlink="http://www.w3.org/1999/xlink" width="144" height="132"><defs><linearGradient id="b" x1="50.166%" x2="49.634%" y1="21.513%" y2="19.968%"><stop offset="0%" stop-color="#2F4568"/><stop offset="100%" stop-color="#3BDFBC"/></linearGradient><linearGradient id="c" x1="28.743%" x2="59.026%" y1="-63.6%" y2="97.937%"><stop offset="0%" stop-color="#25C2F2"/><stop offset="100%" stop-color="#293F64"/></linearGradient><linearGradient id="d" x1="50%" x2="23.496%" y1="89.388%" y2="2.063%"><stop offset="0%" stop-color="#2F4568"/><stop offset="100%" stop-color="#3BDFBC"/></linearGradient><linearGradient id="e" x1="50%" x2="22.985%" y1="73.825%" y2="9.117%"><stop offset="0%" stop-color="#2F4568"/><stop offset="100%" stop-color="#43F1CC"/></linearGradient><linearGradient id="f" x1="100%" x2="0%" y1="-1.164%" y2="99.364%"><stop offset="0%" stop-color="#121D2F"/><stop offset="100%" stop-color="#121D2F" stop-opacity="0"/></linearGradient><linearGradient id="g" x1="30.414%" x2="50%" y1="31.624%" y2="68.376%"><stop offset="0%" stop-color="#5B79A2"/><stop offset="100%" stop-color="#2E4469"/></linearGradient><linearGradient id="h" x1="62.639%" x2="62.639%" y1="0%" y2="79.159%"><stop offset="0%" stop-color="#25C2F2"/><stop offset="100%" stop-color="#152134"/></linearGradient><linearGradient id="k" x1="98.741%" x2="1.259%" y1="48.741%" y2="48.741%"><stop offset="0%" stop-color="#21C8F6"/><stop offset="100%" stop-color="#637BFF"/></linearGradient><linearGradient id="l" x1="34.594%" x2="60.398%" y1="40.953%" y2="55.694%"><stop offset="0%" stop-color="#5B79A2"/><stop offset="100%" stop-color="#2E4469"/></linearGradient><linearGradient id="m" x1="0%" x2="100%" y1="50%" y2="50%"><stop offset="0%" stop-color="#6F90BC"/><stop offset="100%" stop-color="#2E4469"/></linearGradient><linearGradient id="o" x1="50%" x2="50%" y1="64.705%" y2="85.355%"><stop offset="0%" stop-color="#2F4568"/><stop offset="100%" stop-color="#3BDFBC"/></linearGradient><linearGradient id="p" x1="14.645%" x2="83.523%" y1="64.235%" y2="29.868%"><stop offset="0%" stop-color="#2F4568"/><stop offset="100%" stop-color="#3BDFBC"/></linearGradient><linearGradient id="q" x1="75.874%" x2="92.229%" y1="34.347%" y2="96.254%"><stop offset="0%" stop-color="#5B79A2"/><stop offset="100%" stop-color="#2E4469"/></linearGradient><linearGradient id="r" x1="50%" x2="50%" y1="50.016%" y2="100%"><stop offset=".032%" stop-color="#2B6DBD"/><stop offset="100%" stop-color="#1B283E"/></linearGradient><linearGradient id="u" x1="38.152%" x2="41.989%" y1="78.776%" y2="102.32%"><stop offset="0%" stop-color="#55739C"/><stop offset="100%" stop-color="#4179D5"/></linearGradient><linearGradient id="v" x1="59.263%" x2="62.796%" y1="31.206%" y2="85.029%"><stop offset="0%" stop-color="#25C2F2"/><stop offset="100%" stop-color="#0F1725"/></linearGradient><linearGradient id="w" x1="1.259%" x2="98.741%" y1="48.741%" y2="48.741%"><stop offset="0%" stop-color="#21C8F6"/><stop offset="100%" stop-color="#637BFF"/></linearGradient><linearGradient id="A" x1="154.902%" x2="24.379%" y1="138.188%" y2="14.184%"><stop offset="0%" stop-color="#76E1FF"/><stop offset="100%" stop-color="#637BFF" stop-opacity="0"/></linearGradient><linearGradient id="B" x1="13.96%" x2="105.629%" y1=".616%" y2="98.781%"><stop offset="0%" stop-color="#587CB9"/><stop offset="100%" stop-color="#2E4469" stop-opacity="0"/></linearGradient><linearGradient id="F" x1="98.741%" x2="1.259%" y1="48.741%" y2="48.741%"><stop offset="0%" stop-color="#21C8F6"/><stop offset="100%" stop-color="#637BFF"/></linearGradient><linearGradient id="H" x1="98.741%" x2="1.259%" y1="48.741%" y2="48.741%"><stop offset="0%" stop-color="#21C8F6"/><stop offset="100%" stop-color="#637BFF"/></linearGradient><linearGradient id="I" x1="98.741%" x2="1.259%" y1="48.741%" y2="48.741%"><stop offset="0%" stop-color="#21C8F6"/><stop offset="100%" stop-color="#637BFF"/></linearGradient><linearGradient id="J" x1="70.911%" x2="55.034%" y1="56.12%" y2="40.579%"><stop offset="0%" stop-color="#2F4568"/><stop offset="100%" stop-color="#70F8DA"/></linearGradient><linearGradient id="K" x1="50%" x2="30.25%" y1="60.372%" y2="46.363%"><stop offset="0%" stop-color="#2F4568"/><stop offset="100%" stop-color="#3BDFBC"/></linearGradient><linearGradient id="L" x1="70.911%" x2="32.62%" y1="58.971%" y2="29.162%"><stop offset="0%" stop-color="#2F4568"/><stop offset="100%" stop-color="#70F8DA"/></linearGradient><linearGradient id="M" x1="50%" x2="13.85%" y1="65.902%" y2="50%"><stop offset="0%" stop-color="#2F4568"/><stop offset="100%" stop-color="#3BDFBC"/></linearGradient><linearGradient id="N" x1="31.114%" x2="68.886%" y1="85.355%" y2="14.645%"><stop offset="0%" stop-color="#2F4568"/><stop offset="100%" stop-color="#445D7F"/></linearGradient><linearGradient id="O" x1="61.17%" x2="40.716%" y1="60.049%" y2="26.659%"><stop offset="0%" stop-color="#2F4568"/><stop offset="100%" stop-color="#70F8DA"/></linearGradient><linearGradient id="P" x1="50%" x2="32.422%" y1="66.882%" y2="24.152%"><stop offset="0%" stop-color="#2F4568"/><stop offset="100%" stop-color="#3BDFBC"/></linearGradient><linearGradient id="S" x1="98.741%" x2="1.259%" y1="48.741%" y2="48.741%"><stop offset="0%" stop-color="#21C8F6"/><stop offset="100%" stop-color="#637BFF"/></linearGradient><linearGradient id="V" x1="98.741%" x2="1.259%" y1="48.741%" y2="48.741%"><stop offset="0%" stop-color="#21C8F6"/><stop offset="100%" stop-color="#637BFF"/></linearGradient><filter id="i" width="150.8%" height="1099.8%" x="-25.4%" y="-413%" filterUnits="objectBoundingBox"><feOffset dy="2" in="SourceAlpha" result="shadowOffsetOuter1"/><feGaussianBlur in="shadowOffsetOuter1" result="shadowBlurOuter1" stdDeviation="3.5"/><feColorMatrix in="shadowBlurOuter1" values="0 0 0 0 0.0115609217 0 0 0 0 0.467910214 0 0 0 0 1 0 0 0 1 0"/></filter><filter id="s" width="180%" height="180%" x="-40%" y="-40%" filterUnits="objectBoundingBox"><feGaussianBlur in="SourceGraphic" stdDeviation="2.477"/></filter><filter id="D" width="148.4%" height="277.9%" x="-24.2%" y="-68%" filterUnits="objectBoundingBox"><feOffset dy="2" in="SourceAlpha" result="shadowOffsetOuter1"/><feGaussianBlur in="shadowOffsetOuter1" result="shadowBlurOuter1" stdDeviation="2.5"/><feColorMatrix in="shadowBlurOuter1" values="0 0 0 0 0.0115609217 0 0 0 0 0.467910214 0 0 0 0 1 0 0 0 1 0"/></filter><filter id="G" width="145.9%" height="488.2%" x="-23%" y="-194.1%" filterUnits="objectBoundingBox"><feGaussianBlur in="SourceGraphic" stdDeviation="1.721"/></filter><filter id="Q" width="106.6%" height="769.6%" x="-3.3%" y="-334.8%" filterUnits="objectBoundingBox"><feOffset in="SourceAlpha" result="shadowOffsetOuter1"/><feGaussianBlur in="shadowOffsetOuter1" result="shadowBlurOuter1" stdDeviation="1"/><feColorMatrix in="shadowBlurOuter1" values="0 0 0 0 0.0115609217 0 0 0 0 0.467910214 0 0 0 0 1 0 0 0 1 0"/></filter><filter id="T" width="140.6%" height="769.6%" x="-20.3%" y="-334.8%" filterUnits="objectBoundingBox"><feOffset in="SourceAlpha" result="shadowOffsetOuter1"/><feGaussianBlur in="shadowOffsetOuter1" result="shadowBlurOuter1" stdDeviation="1"/><feColorMatrix in="shadowBlurOuter1" values="0 0 0 0 0.0115609217 0 0 0 0 0.467910214 0 0 0 0 1 0 0 0 1 0"/></filter><filter id="W" width="150.8%" height="1099.8%" x="-25.4%" y="-413%" filterUnits="objectBoundingBox"><feOffset dy="2" in="SourceAlpha" result="shadowOffsetOuter1"/><feGaussianBlur in="shadowOffsetOuter1" result="shadowBlurOuter1" stdDeviation="3.5"/><feColorMatrix in="shadowBlurOuter1" values="0 0 0 0 0.0115609217 0 0 0 0 0.467910214 0 0 0 0 1 0 0 0 1 0"/></filter><filter id="Y" width="180%" height="180%" x="-40%" y="-40%" filterUnits="objectBoundingBox"><feGaussianBlur in="SourceGraphic" stdDeviation="2.477"/></filter><filter id="ac" width="148.4%" height="277.9%" x="-24.2%" y="-68%" filterUnits="objectBoundingBox"><feOffset dy="2" in="SourceAlpha" result="shadowOffsetOuter1"/><feGaussianBlur in="shadowOffsetOuter1" result="shadowBlurOuter1" stdDeviation="2.5"/><feColorMatrix in="shadowBlurOuter1" values="0 0 0 0 0.0115609217 0 0 0 0 0.467910214 0 0 0 0 1 0 0 0 1 0"/></filter><filter id="ae" width="145.9%" height="488.2%" x="-23%" y="-194.1%" filterUnits="objectBoundingBox"><feGaussianBlur in="SourceGraphic" stdDeviation="1.721"/></filter><filter id="af" width="106.6%" height="769.6%" x="-3.3%" y="-334.8%" filterUnits="objectBoundingBox"><feOffset in="SourceAlpha" result="shadowOffsetOuter1"/><feGaussianBlur in="shadowOffsetOuter1" result="shadowBlurOuter1" stdDeviation="1"/><feColorMatrix in="shadowBlurOuter1" values="0 0 0 0 0.0115609217 0 0 0 0 0.467910214 0 0 0 0 1 0 0 0 1 0"/></filter><filter id="ah" width="140.6%" height="769.6%" x="-20.3%" y="-334.8%" filterUnits="objectBoundingBox"><feOffset in="SourceAlpha" result="shadowOffsetOuter1"/><feGaussianBlur in="shadowOffsetOuter1" result="shadowBlurOuter1" stdDeviation="1"/><feColorMatrix in="shadowBlurOuter1" values="0 0 0 0 0.0115609217 0 0 0 0 0.467910214 0 0 0 0 1 0 0 0 1 0"/></filter><filter id="aj" width="150.8%" height="1099.8%" x="-25.4%" y="-413%" filterUnits="objectBoundingBox"><feOffset dy="2" in="SourceAlpha" result="shadowOffsetOuter1"/><feGaussianBlur in="shadowOffsetOuter1" result="shadowBlurOuter1" stdDeviation="3.5"/><feColorMatrix in="shadowBlurOuter1" values="0 0 0 0 0.0115609217 0 0 0 0 0.467910214 0 0 0 0 1 0 0 0 1 0"/></filter><filter id="al" width="180%" height="180%" x="-40%" y="-40%" filterUnits="objectBoundingBox"><feGaussianBlur in="SourceGraphic" stdDeviation="2.477"/></filter><filter id="ap" width="148.4%" height="277.9%" x="-24.2%" y="-68%" filterUnits="objectBoundingBox"><feOffset dy="2" in="SourceAlpha" result="shadowOffsetOuter1"/><feGaussianBlur in="shadowOffsetOuter1" result="shadowBlurOuter1" stdDeviation="2.5"/><feColorMatrix in="shadowBlurOuter1" values="0 0 0 0 0.0115609217 0 0 0 0 0.467910214 0 0 0 0 1 0 0 0 1 0"/></filter><filter id="ar" width="145.9%" height="488.2%" x="-23%" y="-194.1%" filterUnits="objectBoundingBox"><feGaussianBlur in="SourceGraphic" stdDeviation="1.721"/></filter><filter id="as" width="106.6%" height="769.6%" x="-3.3%" y="-334.8%" filterUnits="objectBoundingBox"><feOffset in="SourceAlpha" result="shadowOffsetOuter1"/><feGaussianBlur in="shadowOffsetOuter1" result="shadowBlurOuter1" stdDeviation="1"/><feColorMatrix in="shadowBlurOuter1" values="0 0 0 0 0.0115609217 0 0 0 0 0.467910214 0 0 0 0 1 0 0 0 1 0"/></filter><filter id="au" width="140.6%" height="769.6%" x="-20.3%" y="-334.8%" filterUnits="objectBoundingBox"><feOffset in="SourceAlpha" result="shadowOffsetOuter1"/><feGaussianBlur in="shadowOffsetOuter1" result="shadowBlurOuter1" stdDeviation="1"/><feColorMatrix in="shadowBlurOuter1" values="0 0 0 0 0.0115609217 0 0 0 0 0.467910214 0 0 0 0 1 0 0 0 1 0"/></filter><path id="j" d="M26.276 45.81h42.955a1.15 1.15 0 010 2.3H26.276a1.15 1.15 0 110-2.3z"/><path id="y" d="M5.68 0h30.08a5.68 5.68 0 015.68 5.68v24.124a5.682 5.682 0 01-3.617 5.293c-3.583 1.397-9.047 2.095-16.391 2.095-7.787 0-13.719-.785-17.794-2.355A5.681 5.681 0 010 29.537V5.68A5.68 5.68 0 015.68 0z"/><path id="z" d="M5.68 0h30.08a5.68 5.68 0 015.68 5.68v24.124a5.682 5.682 0 01-3.617 5.293c-3.583 1.397-9.047 2.095-16.391 2.095-7.787 0-13.719-.785-17.794-2.355A5.681 5.681 0 010 29.537V5.68A5.68 5.68 0 015.68 0z"/><path id="E" d="M4.779 0h25.578a4.779 4.779 0 010 9.557H4.779a4.778 4.778 0 110-9.557z"/><path id="X" d="M26.276 45.81h42.955a1.15 1.15 0 010 2.3H26.276a1.15 1.15 0 110-2.3z"/><path id="Z" d="M5.68 0h30.08a5.68 5.68 0 015.68 5.68v24.124a5.682 5.682 0 01-3.617 5.293c-3.583 1.397-9.047 2.095-16.391 2.095-7.787 0-13.719-.785-17.794-2.355A5.681 5.681 0 010 29.537V5.68A5.68 5.68 0 015.68 0z"/><path id="aa" d="M5.68 0h30.08a5.68 5.68 0 015.68 5.68v24.124a5.682 5.682 0 01-3.617 5.293c-3.583 1.397-9.047 2.095-16.391 2.095-7.787 0-13.719-.785-17.794-2.355A5.681 5.681 0 010 29.537V5.68A5.68 5.68 0 015.68 0z"/><path id="ad" d="M4.779 0h25.578a4.779 4.779 0 010 9.557H4.779a4.778 4.778 0 110-9.557z"/><path id="ak" d="M26.276 45.81h42.955a1.15 1.15 0 010 2.3H26.276a1.15 1.15 0 110-2.3z"/><path id="am" d="M5.68 0h30.08a5.68 5.68 0 015.68 5.68v24.124a5.682 5.682 0 01-3.617 5.293c-3.583 1.397-9.047 2.095-16.391 2.095-7.787 0-13.719-.785-17.794-2.355A5.681 5.681 0 010 29.537V5.68A5.68 5.68 0 015.68 0z"/><path id="an" d="M5.68 0h30.08a5.68 5.68 0 015.68 5.68v24.124a5.682 5.682 0 01-3.617 5.293c-3.583 1.397-9.047 2.095-16.391 2.095-7.787 0-13.719-.785-17.794-2.355A5.681 5.681 0 010 29.537V5.68A5.68 5.68 0 015.68 0z"/><path id="aq" d="M4.779 0h25.578a4.779 4.779 0 010 9.557H4.779a4.778 4.778 0 110-9.557z"/><rect id="R" width="90.496" height="1" x="6.72" y="34.048" rx=".5"/><rect id="U" width="14.784" height="1" x="43.904" y=".896" rx=".5"/><rect id="ag" width="90.496" height="1" x="6.72" y="34.048" rx=".5"/><rect id="ai" width="14.784" height="1" x="43.904" y=".896" rx=".5"/><rect id="at" width="90.496" height="1" x="6.72" y="34.048" rx=".5"/><rect id="av" width="14.784" height="1" x="43.904" y=".896" rx=".5"/><radialGradient id="a" cx="50%" cy="73.753%" r="584.375%" fx="50%" fy="73.753%" gradientTransform="matrix(0 .08556 -3.99702 0 3.448 .695)"><stop offset="0%" stop-color="#25C2F2" stop-opacity=".626"/><stop offset="100%" stop-color="#293F64"/></radialGradient><radialGradient id="n" cx="50%" cy="73.753%" r="50%" fx="50%" fy="73.753%" gradientTransform="matrix(0 1 -.98425 0 1.226 .238)"><stop offset="0%" stop-color="#25C2F2" stop-opacity=".626"/><stop offset="100%" stop-color="#293F64"/></radialGradient><radialGradient id="t" cx="50%" cy="50%" r="68.353%" fx="50%" fy="50%"><stop offset="0%" stop-color="#21C8F6"/><stop offset="100%" stop-color="#4BDEFF"/></radialGradient><radialGradient id="x" cx="43.496%" cy="117.006%" r="68.68%" fx="43.496%" fy="117.006%" gradientTransform="matrix(.0947 -.97562 .73984 .38561 -.472 1.143)"><stop offset="0%" stop-color="#25C2F2"/><stop offset="100%" stop-color="#293F64"/></radialGradient></defs><g fill="none" fill-rule="evenodd"><g opacity=".202" style="mix-blend-mode:luminosity" transform="translate(20 2)"><path fill="#233452" d="M86.09 58.975l2.534 2.534c.7.7.7 1.835 0 2.534l-52.902 52.903a7.168 7.168 0 01-10.138 0l57.972-57.971c.7-.7 1.834-.7 2.534 0z"/><path fill="url(#a)" d="M30.41 3.173h3.584c.99 0 1.792.803 1.792 1.792v74.816c0 3.96-3.21 7.168-7.168 7.168V4.965c0-.99.802-1.792 1.792-1.792z" transform="rotate(45 -9.108 98.286)"/><path fill="url(#b)" d="M30.41 3.173h3.584c.99 0 1.792.803 1.792 1.792v74.816c0 3.96-3.21 7.168-7.168 7.168V4.965c0-.99.802-1.792 1.792-1.792z" opacity=".355" style="mix-blend-mode:hard-light" transform="rotate(45 -9.108 98.286)"/><path fill="#090F19" d="M81.526 60.956l-3.044 3.184 5.993 4.036 2.119-2.151z"/><path fill="#1B283E" d="M98.949 46.067l2.534 2.534c.7.7.7 1.835 0 2.535L89.129 63.49a3.584 3.584 0 11-5.069-5.068l12.356-12.355c.7-.7 1.834-.7 2.534 0z"/><path fill="url(#c)" d="M73.372 1.227l2.533 2.533a1.791 1.791 0 01-.042 2.574l-1.156 1.084-5.069-5.068 1.242-1.164a1.792 1.792 0 012.492.04z" opacity=".705" transform="translate(25.536 44.8)"/><path fill="url(#d)" d="M73.372 1.227l2.533 2.533a1.791 1.791 0 01-.042 2.574l-1.156 1.084-5.069-5.068 1.242-1.164a1.792 1.792 0 012.492.04z" opacity=".355" style="mix-blend-mode:hard-light" transform="translate(25.536 44.8)"/><path fill="#233452" d="M79.001 53.309l15.733 15.343-.294.294a3.583 3.583 0 01-5.036.031L78.803 58.64a3.583 3.583 0 01-.064-5.068l.031-.032.23-.23z"/><path fill="url(#e)" d="M53.465 8.509l15.733 15.343-.294.294a3.583 3.583 0 01-5.036.031L53.267 13.84a3.583 3.583 0 01-.064-5.068l.031-.032.23-.23z" opacity=".355" style="mix-blend-mode:hard-light" transform="translate(25.536 44.8)"/><path fill="#121D2F" d="M79.215 63.349l7.003 3.054-2.168 2.249-6.563-3.471z"/><path fill="#1B283E" d="M81.526 60.956l3.26 6.731-1.684 1.72-3.492-6.816z"/><path stroke="url(#f)" stroke-width=".5" d="M54.074 23.376L5.824 71.318" opacity=".386" transform="translate(25.536 44.8)"/><path fill="#121D2F" d="M90.618 61.95l-2.543-7.576 3.14-2.975 2.508 7.57z"/><path fill="#233452" d="M83.998 58.502l8.378 1.779 2.358-2.573-8.14-1.603zm11.726-1.827l-2.5-7.175 1.95-1.852 2.885 6.856z"/><path fill="#1B283E" d="M16.094 73.492h69.058a7.568 7.568 0 017.474 8.759l-5.472 34.332a15.137 15.137 0 01-14.948 12.754H29.04a15.136 15.136 0 01-14.947-12.754L8.62 82.251a7.568 7.568 0 017.474-8.759z"/><path fill="url(#g)" d="M11.232 14.527h73.78a7.568 7.568 0 017.454 8.882l-5.647 32.047a15.136 15.136 0 01-14.907 12.51h-47.58a15.136 15.136 0 01-14.906-12.51L3.779 23.409a7.567 7.567 0 017.453-8.882z" transform="translate(2.501 55.355)"/><path fill="url(#h)" d="M11.232 14.527h73.78a7.568 7.568 0 017.454 8.882l-5.647 32.047a15.136 15.136 0 01-14.907 12.51h-47.58a15.136 15.136 0 01-14.906-12.51L3.779 23.409a7.567 7.567 0 017.453-8.882z" opacity=".705" transform="translate(2.501 55.355)"/><path fill="#1B283E" d="M28.777 96.955h42.955a1.15 1.15 0 110 2.3H28.777a1.15 1.15 0 010-2.3z"/><g transform="translate(2.501 55.355)"><use fill="#000" filter="url(#i)" xlink:href="#j"/><use fill="url(#k)" xlink:href="#j"/></g><path fill="#1B283E" d="M29.379 105.377h42.955a1.15 1.15 0 010 2.3H29.379a1.15 1.15 0 010-2.3zm-16.246 3.427l1.151 1.659h73.042l.815-1.428a1.386 1.386 0 012.588.686 5.222 5.222 0 01-5.222 5.222H16.223a5.675 5.675 0 01-5.657-5.222 1.412 1.412 0 012.567-.917z"/><path fill="url(#l)" d="M23.82 15.128h49.54a7.568 7.568 0 017.215 9.853l-.736 2.325a15.137 15.137 0 01-14.43 10.569H31.77c-6.6 0-12.439-4.277-14.43-10.569l-.737-2.325a7.57 7.57 0 017.216-9.853z" transform="translate(2.501 55.355)"/><path fill="url(#m)" d="M11.852 15.128H85a7.568 7.568 0 016.943 10.581l-1.325 3.053a15.136 15.136 0 01-13.886 9.113H20.12a15.137 15.137 0 01-13.887-9.113L4.91 25.709a7.567 7.567 0 016.943-10.581z" transform="translate(2.501 55.355)"/><path fill="url(#n)" d="M11.852 15.128H85a7.568 7.568 0 016.943 10.581l-1.325 3.053a15.136 15.136 0 01-13.886 9.113H20.12a15.137 15.137 0 01-13.887-9.113L4.91 25.709a7.567 7.567 0 016.943-10.581z" transform="translate(2.501 55.355)"/><path fill="url(#o)" d="M11.852 15.128H85a7.568 7.568 0 016.943 10.581l-1.325 3.053a15.136 15.136 0 01-13.886 9.113H20.12a15.137 15.137 0 01-13.887-9.113L4.91 25.709a7.567 7.567 0 016.943-10.581z" opacity=".328" style="mix-blend-mode:hard-light" transform="translate(2.501 55.355)"/><path fill="#233452" d="M24.045 69.875l-12.037-.115a6.72 6.72 0 00-6.295 4.201l-1.906 4.715a6.714 6.714 0 00.184 5.452l5.417 11.164.537-1.832a21.053 21.053 0 0111.119-13.07l21.931-10.495-18.95-.02z"/><path fill="url(#p)" d="M21.544 14.52l-12.037-.115a6.72 6.72 0 00-6.295 4.201l-1.906 4.715a6.714 6.714 0 00.184 5.452l5.417 11.164.537-1.832a21.053 21.053 0 0111.119-13.07L40.494 14.54l-18.95-.02z" opacity=".328" style="mix-blend-mode:hard-light" transform="translate(2.501 55.355)"/><path fill="#233452" d="M77.18 69.716h12.094a6.718 6.718 0 016.23 4.201l1.924 4.76a6.712 6.712 0 01-.184 5.451l-5.417 11.164-.537-1.832a21.053 21.053 0 00-11.119-13.07L58.24 69.895l18.94-.18z"/><path fill="url(#p)" d="M77.106 14.361H65.012a6.718 6.718 0 00-6.23 4.201l-1.924 4.76a6.712 6.712 0 00.184 5.451l5.417 11.164.537-1.832a21.053 21.053 0 0111.119-13.07L96.046 14.54l-18.94-.18z" opacity=".328" style="mix-blend-mode:hard-light" transform="matrix(-1 0 0 1 154.286 55.355)"/><path fill="#1B283E" d="M6.931 75.661a6.533 6.533 0 00.583 4.39l.706 1.37a15.137 15.137 0 0013.453 8.199h58.03a15.137 15.137 0 0013.453-8.2l.705-1.368a6.556 6.556 0 00.585-4.387 7.56 7.56 0 01-.241 5.399l-1.324 3.053a15.137 15.137 0 01-13.886 9.113H22.381c-6.03 0-11.486-3.58-13.886-9.113L7.17 81.064a7.539 7.539 0 01-.292-5.232z" opacity=".504"/><path fill="#1B283E" d="M41.087 73.492h20.566c1.831 0 3.6.663 4.979 1.868l3.364 2.938a2.743 2.743 0 01-1.803 4.807H34.547a2.742 2.742 0 01-1.804-4.807l3.365-2.938a7.566 7.566 0 014.979-1.868z"/><g transform="translate(39.395 55.355)"><path fill="url(#q)" d="M5.962.008h12.78a5.886 5.886 0 015.886 5.886v14.365a3.364 3.364 0 01-3.363 3.364H3.439a3.364 3.364 0 01-3.364-3.364V5.894A5.887 5.887 0 015.962.008z"/><path fill="url(#r)" d="M5.962.008h12.78a5.886 5.886 0 015.886 5.886v14.365a3.364 3.364 0 01-3.363 3.364H3.439a3.364 3.364 0 01-3.364-3.364V5.894A5.887 5.887 0 015.962.008z"/><circle cx="11.894" cy="12.321" r="8.669" fill="#1B283E"/></g><g transform="rotate(1 -3314.952 2444.862)"><circle cx="9.289" cy="9.289" r="9.289" fill="#328AF1" filter="url(#s)" opacity=".842"/><circle cx="9.487" cy="9.671" r="4.954" fill="url(#t)" transform="scale(1 -1) rotate(4 286.43 0)"/><g style="mix-blend-mode:soft-light" fill="#FFF"><path d="M7.754 8.555l.787.787a.45.45 0 01-.637.637l-.787-.787a.45.45 0 01.636-.636zM9.497 10.3l1.718 1.718a.45.45 0 11-.636.636L8.86 10.936a.45.45 0 01.637-.636z"/><path d="M7.309 8.442l4.852-1.364a.43.43 0 01.53.298l.003.01c.06.237-.08.48-.316.546L7.526 9.296a.431.431 0 01-.53-.298l-.003-.01a.451.451 0 01.316-.546z"/><path d="M10.478 12.247l1.363-4.852a.452.452 0 01.546-.316.43.43 0 01.312.524l-.003.01-1.363 4.852a.452.452 0 01-.548.315.43.43 0 01-.31-.523l.003-.01zm-.096-2.231l-1.804 1.803a.438.438 0 11-.62-.619l1.804-1.803a.438.438 0 11.62.619zm-2.643 2.643l-.296.295a.438.438 0 11-.62-.62l.296-.295a.438.438 0 11.62.62z"/></g><path fill="#FFF" fill-opacity=".547" d="M5.637 10.088a4.12 4.12 0 001.986 3.111 4.128 4.128 0 015.145-6.352 4.129 4.129 0 00-7.131 3.24z" style="mix-blend-mode:lighten" opacity=".58"/></g><ellipse cx="51.52" cy="36.064" fill="#0F1826" rx="48.832" ry="4.256"/><g transform="translate(25.869 14.344)"><path fill="url(#u)" d="M12.39 0h26.75c6.721 0 12.17 5.45 12.17 12.172v28.16c0 8.066-6.54 14.606-14.606 14.606H14.823c-8.066 0-14.606-6.54-14.606-14.606v-28.16C.217 5.45 5.667 0 12.39 0z"/><path fill="url(#v)" d="M12.39 0h26.75c6.721 0 12.17 5.45 12.17 12.172v28.16c0 8.066-6.54 14.606-14.606 14.606H14.823c-8.066 0-14.606-6.54-14.606-14.606v-28.16C.217 5.45 5.667 0 12.39 0z" opacity=".705"/><ellipse cx="10.853" cy="4.7" fill="url(#w)" rx="1.609" ry="1.635"/><path fill="url(#x)" d="M1.22 34.159c0 8.066 6.54 14.606 14.606 14.606h19.932c8.067 0 14.606-6.54 14.606-14.606v6.602c0 8.066-6.54 14.606-14.606 14.606H15.826c-8.066 0-14.606-6.54-14.606-14.606z" opacity=".405"/><g transform="translate(5.232 8.174)"><use fill="#111B2C" xlink:href="#y"/><mask id="C" fill="#fff"><use xlink:href="#z"/></mask><path stroke="url(#A)" stroke-width=".867" d="M35.76.433c1.448 0 2.76.588 3.71 1.537a5.232 5.232 0 011.536 3.71h0v24.124a5.231 5.231 0 01-.915 2.96 5.231 5.231 0 01-2.426 1.929c-3.548 1.383-8.96 2.066-16.233 2.066-7.718 0-13.599-.77-17.638-2.327a5.24 5.24 0 01-3.36-4.896h0V5.68c0-1.449.587-2.76 1.536-3.71A5.229 5.229 0 015.68.433h0z"/><ellipse cx="11.666" cy="6.948" fill="url(#B)" mask="url(#C)" opacity=".356" rx="22.93" ry="23.296"/></g><path d="M31.236 5.803h-1.294a.648.648 0 01-.64-.654c0-.36.287-.654.64-.654h1.294c.354 0 .64.293.64.654a.647.647 0 01-.64.654zm2.413-1.798h-1.292a.648.648 0 01-.641-.654c0-.361.287-.654.64-.654h1.293c.354 0 .641.293.641.654a.648.648 0 01-.64.654zm6.597 1.798h-7.08a.65.65 0 01-.646-.654c0-.36.29-.654.645-.654h7.077a.65.65 0 01.646.654.65.65 0 01-.646.654h.004zm2.385-1.798h-7.027a.662.662 0 01-.67-.654c0-.361.3-.654.67-.654h7.027c.37 0 .67.293.67.654 0 .361-.3.654-.67.654z" fill="#243552"/></g><g transform="rotate(-1 1959.585 -1903.361)"><use fill="#000" filter="url(#D)" xlink:href="#E"/><use fill="url(#F)" xlink:href="#E"/></g><path fill="#00FFEC" d="M7.594 3.558H27.42a1.33 1.33 0 010 2.66H7.594a1.33 1.33 0 010-2.66z" filter="url(#G)" transform="rotate(-1 1959.585 -1903.361)"/><g transform="rotate(-1 1554.941 -1181.073)"><ellipse cx="15.466" cy="11.813" fill="url(#H)" opacity=".398" rx="11.342" ry="11.299"/><path fill="url(#I)" d="M14.917 1.724l-8.592 16.38 6.813 4.311 8.684-18.392z" opacity=".396"/><ellipse cx="44.851" cy="11.813" fill="url(#H)" opacity=".398" rx="11.342" ry="11.299"/><path fill="url(#I)" d="M44.243 1.724l-8.592 16.38 6.813 4.311 8.684-18.392z" opacity=".396"/><path fill="#111B2C" stroke="#111B2C" stroke-width=".803" d="M44.608 22.497c-5.796 0-10.495-4.669-10.495-10.428 0-5.758 4.699-10.427 10.495-10.427 5.795 0 10.494 4.669 10.494 10.427 0 5.76-4.699 10.428-10.494 10.428zm-29.304 0c-5.796 0-10.494-4.669-10.494-10.428 0-5.758 4.698-10.427 10.494-10.427 5.796 0 10.494 4.669 10.494 10.427 0 5.76-4.698 10.428-10.494 10.428zM55.699 5.674c-.877-1.005-2.541-2.307-3.538-3.051a12.174 12.174 0 00-.792-.58l-.017-.013v.001A12.157 12.157 0 0044.608 0a12.15 12.15 0 00-8.605 3.55c-1.065.989-1.982 2.071-2.932 3.132-1.202 1.344-1.913.684-3.115.684-1.202 0-1.914.66-3.116-.684-.949-1.06-1.867-2.143-2.932-3.132A12.236 12.236 0 0015.267 0c-2.496 0-4.963.749-6.782 2.031h0l.02.012c-.274.182-.519.377-.775.58-.997.744-2.705 2.046-3.581 3.05C2.846 7.168 0 7.268 0 7.268v3.085s1.704-.1 2.254.548c.326.382.677 2.22 1.25 4.144.175.685.424 1.346.71 1.979.269.629.583 1.212.94 1.69l.005-.003a12.156 12.156 0 0010.143 5.429c4.922 0 9.158-2.91 11.067-7.092l.01-.012.028-.047c.872-1.47 1.75-5.498 2.146-6.138.4-.647 1.403-.697 1.403-.697s1.002.05 1.402.697c.397.64 1.275 4.668 2.147 6.138l.028.047.009.012a12.15 12.15 0 0011.066 7.092c4.239 0 7.968-2.159 10.141-5.429l.001.003c.359-.478.666-1.06.934-1.69.287-.633.523-1.294.698-1.98.573-1.923.895-3.761 1.22-4.143.551-.647 2.2-.548 2.2-.548V7.267s-2.8-.1-4.103-1.593h0z"/></g><path fill="#0F1826" d="M20 34h63v5H20z" opacity=".615"/><path fill="#233452" d="M43.293 2.015L3.642 34.272l95-1.085L58.989 2.015z"/><path fill="#1B283E" d="M43.059 2.912C17.736 22.397 5.312 32.14 5.786 32.14c.475 0 4.586-.11 12.333-.332L43.226 2.912h-.167z"/><path fill="url(#J)" d="M37.462.896C12.139 20.381-.285 30.124.189 30.124c.475 0 4.586-.11 12.333-.332L37.629.896h-.167z" opacity=".464" style="mix-blend-mode:hard-light" transform="translate(5.597 2.016)"/><path fill="#121D2F" d="M97.437 32.071c-.475 0-4.502-.088-12.08-.263L60.25 2.912c25.266 19.44 37.662 29.16 37.187 29.16z"/><path fill="url(#K)" d="M54.666 30.055c.475 0 4.502-.088 12.08-.263L91.853.896c-25.266 19.44-37.662 29.16-37.187 29.16z" opacity=".542" style="mix-blend-mode:lighten" transform="matrix(-1 0 0 1 152.103 2.016)"/><path fill="#233452" d="M42.761 2.49L16.346 32.526h15.831L48.134 2.49z"/><path fill="url(#L)" opacity=".464" style="mix-blend-mode:hard-light" d="M37.164.474L10.749 30.51H26.58L42.537.474z" transform="translate(5.597 2.016)"/><path fill="#1B283E" d="M59.719 2.317l26.962 30.209H71.076L55.555 2.317z"/><path fill="url(#M)" opacity=".295" style="mix-blend-mode:lighten" d="M76.921.301L49.959 30.51h15.605L81.085.301z" transform="matrix(-1 0 0 1 136.64 2.016)"/><path fill="url(#N)" d="M40.713.474L25.98 30.51h21.952L46.144.474h-5.431z" transform="translate(5.597 2.016)"/><path fill="url(#O)" d="M40.713.474L25.98 30.51h21.952L46.144.474h-5.431z" opacity=".33" style="mix-blend-mode:hard-light" transform="translate(5.597 2.016)"/><path fill="#233452" d="M57.173 2.316l14.724 30.157h-21.95l1.794-30.157h5.432z"/><path fill="url(#P)" d="M59.074.3L44.35 30.457H66.3L64.506.3h-5.432z" opacity=".341" style="mix-blend-mode:lighten" transform="matrix(-1 0 0 1 116.247 2.016)"/><path fill="#0F1826" d="M6.774 31.808h89.704c.476 0 .938.169 1.302.477l2.348 1.987a1.397 1.397 0 01-.903 2.464H3.905a1.387 1.387 0 01-.876-2.464l2.473-2.012a2.016 2.016 0 011.272-.452z"/><use fill="#000" filter="url(#Q)" xlink:href="#R"/><use fill="url(#S)" xlink:href="#R"/><rect width="18.368" height="2.688" x="42.112" fill="#0F1826" rx="1.344"/><g><use fill="#000" filter="url(#T)" xlink:href="#U"/><use fill="url(#V)" xlink:href="#U"/></g></g><g opacity=".063" style="mix-blend-mode:luminosity" transform="translate(0 2)"><path fill="#233452" d="M86.09 58.975l2.534 2.534c.7.7.7 1.835 0 2.534l-52.902 52.903a7.168 7.168 0 01-10.138 0l57.972-57.971c.7-.7 1.834-.7 2.534 0z"/><path fill="url(#a)" d="M30.41 3.173h3.584c.99 0 1.792.803 1.792 1.792v74.816c0 3.96-3.21 7.168-7.168 7.168V4.965c0-.99.802-1.792 1.792-1.792z" transform="rotate(45 -9.108 98.286)"/><path fill="url(#b)" d="M30.41 3.173h3.584c.99 0 1.792.803 1.792 1.792v74.816c0 3.96-3.21 7.168-7.168 7.168V4.965c0-.99.802-1.792 1.792-1.792z" opacity=".355" style="mix-blend-mode:hard-light" transform="rotate(45 -9.108 98.286)"/><path fill="#090F19" d="M81.526 60.956l-3.044 3.184 5.993 4.036 2.119-2.151z"/><path fill="#1B283E" d="M98.949 46.067l2.534 2.534c.7.7.7 1.835 0 2.535L89.129 63.49a3.584 3.584 0 11-5.069-5.068l12.356-12.355c.7-.7 1.834-.7 2.534 0z"/><path fill="url(#c)" d="M73.372 1.227l2.533 2.533a1.791 1.791 0 01-.042 2.574l-1.156 1.084-5.069-5.068 1.242-1.164a1.792 1.792 0 012.492.04z" opacity=".705" transform="translate(25.536 44.8)"/><path fill="url(#d)" d="M73.372 1.227l2.533 2.533a1.791 1.791 0 01-.042 2.574l-1.156 1.084-5.069-5.068 1.242-1.164a1.792 1.792 0 012.492.04z" opacity=".355" style="mix-blend-mode:hard-light" transform="translate(25.536 44.8)"/><path fill="#233452" d="M79.001 53.309l15.733 15.343-.294.294a3.583 3.583 0 01-5.036.031L78.803 58.64a3.583 3.583 0 01-.064-5.068l.031-.032.23-.23z"/><path fill="url(#e)" d="M53.465 8.509l15.733 15.343-.294.294a3.583 3.583 0 01-5.036.031L53.267 13.84a3.583 3.583 0 01-.064-5.068l.031-.032.23-.23z" opacity=".355" style="mix-blend-mode:hard-light" transform="translate(25.536 44.8)"/><path fill="#121D2F" d="M79.215 63.349l7.003 3.054-2.168 2.249-6.563-3.471z"/><path fill="#1B283E" d="M81.526 60.956l3.26 6.731-1.684 1.72-3.492-6.816z"/><path stroke="url(#f)" stroke-width=".5" d="M54.074 23.376L5.824 71.318" opacity=".386" transform="translate(25.536 44.8)"/><path fill="#121D2F" d="M90.618 61.95l-2.543-7.576 3.14-2.975 2.508 7.57z"/><path fill="#233452" d="M83.998 58.502l8.378 1.779 2.358-2.573-8.14-1.603zm11.726-1.827l-2.5-7.175 1.95-1.852 2.885 6.856z"/><path fill="#1B283E" d="M16.094 73.492h69.058a7.568 7.568 0 017.474 8.759l-5.472 34.332a15.137 15.137 0 01-14.948 12.754H29.04a15.136 15.136 0 01-14.947-12.754L8.62 82.251a7.568 7.568 0 017.474-8.759z"/><path fill="url(#g)" d="M11.232 14.527h73.78a7.568 7.568 0 017.454 8.882l-5.647 32.047a15.136 15.136 0 01-14.907 12.51h-47.58a15.136 15.136 0 01-14.906-12.51L3.779 23.409a7.567 7.567 0 017.453-8.882z" transform="translate(2.501 55.355)"/><path fill="url(#h)" d="M11.232 14.527h73.78a7.568 7.568 0 017.454 8.882l-5.647 32.047a15.136 15.136 0 01-14.907 12.51h-47.58a15.136 15.136 0 01-14.906-12.51L3.779 23.409a7.567 7.567 0 017.453-8.882z" opacity=".705" transform="translate(2.501 55.355)"/><path fill="#1B283E" d="M28.777 96.955h42.955a1.15 1.15 0 110 2.3H28.777a1.15 1.15 0 010-2.3z"/><g transform="translate(2.501 55.355)"><use fill="#000" filter="url(#W)" xlink:href="#X"/><use fill="url(#k)" xlink:href="#X"/></g><path fill="#1B283E" d="M29.379 105.377h42.955a1.15 1.15 0 010 2.3H29.379a1.15 1.15 0 010-2.3zm-16.246 3.427l1.151 1.659h73.042l.815-1.428a1.386 1.386 0 012.588.686 5.222 5.222 0 01-5.222 5.222H16.223a5.675 5.675 0 01-5.657-5.222 1.412 1.412 0 012.567-.917z"/><path fill="url(#l)" d="M23.82 15.128h49.54a7.568 7.568 0 017.215 9.853l-.736 2.325a15.137 15.137 0 01-14.43 10.569H31.77c-6.6 0-12.439-4.277-14.43-10.569l-.737-2.325a7.57 7.57 0 017.216-9.853z" transform="translate(2.501 55.355)"/><path fill="url(#m)" d="M11.852 15.128H85a7.568 7.568 0 016.943 10.581l-1.325 3.053a15.136 15.136 0 01-13.886 9.113H20.12a15.137 15.137 0 01-13.887-9.113L4.91 25.709a7.567 7.567 0 016.943-10.581z" transform="translate(2.501 55.355)"/><path fill="url(#n)" d="M11.852 15.128H85a7.568 7.568 0 016.943 10.581l-1.325 3.053a15.136 15.136 0 01-13.886 9.113H20.12a15.137 15.137 0 01-13.887-9.113L4.91 25.709a7.567 7.567 0 016.943-10.581z" transform="translate(2.501 55.355)"/><path fill="url(#o)" d="M11.852 15.128H85a7.568 7.568 0 016.943 10.581l-1.325 3.053a15.136 15.136 0 01-13.886 9.113H20.12a15.137 15.137 0 01-13.887-9.113L4.91 25.709a7.567 7.567 0 016.943-10.581z" opacity=".328" style="mix-blend-mode:hard-light" transform="translate(2.501 55.355)"/><path fill="#233452" d="M24.045 69.875l-12.037-.115a6.72 6.72 0 00-6.295 4.201l-1.906 4.715a6.714 6.714 0 00.184 5.452l5.417 11.164.537-1.832a21.053 21.053 0 0111.119-13.07l21.931-10.495-18.95-.02z"/><path fill="url(#p)" d="M21.544 14.52l-12.037-.115a6.72 6.72 0 00-6.295 4.201l-1.906 4.715a6.714 6.714 0 00.184 5.452l5.417 11.164.537-1.832a21.053 21.053 0 0111.119-13.07L40.494 14.54l-18.95-.02z" opacity=".328" style="mix-blend-mode:hard-light" transform="translate(2.501 55.355)"/><path fill="#233452" d="M77.18 69.716h12.094a6.718 6.718 0 016.23 4.201l1.924 4.76a6.712 6.712 0 01-.184 5.451l-5.417 11.164-.537-1.832a21.053 21.053 0 00-11.119-13.07L58.24 69.895l18.94-.18z"/><path fill="url(#p)" d="M77.106 14.361H65.012a6.718 6.718 0 00-6.23 4.201l-1.924 4.76a6.712 6.712 0 00.184 5.451l5.417 11.164.537-1.832a21.053 21.053 0 0111.119-13.07L96.046 14.54l-18.94-.18z" opacity=".328" style="mix-blend-mode:hard-light" transform="matrix(-1 0 0 1 154.286 55.355)"/><path fill="#1B283E" d="M6.931 75.661a6.533 6.533 0 00.583 4.39l.706 1.37a15.137 15.137 0 0013.453 8.199h58.03a15.137 15.137 0 0013.453-8.2l.705-1.368a6.556 6.556 0 00.585-4.387 7.56 7.56 0 01-.241 5.399l-1.324 3.053a15.137 15.137 0 01-13.886 9.113H22.381c-6.03 0-11.486-3.58-13.886-9.113L7.17 81.064a7.539 7.539 0 01-.292-5.232z" opacity=".504"/><path fill="#1B283E" d="M41.087 73.492h20.566c1.831 0 3.6.663 4.979 1.868l3.364 2.938a2.743 2.743 0 01-1.803 4.807H34.547a2.742 2.742 0 01-1.804-4.807l3.365-2.938a7.566 7.566 0 014.979-1.868z"/><g transform="translate(39.395 55.355)"><path fill="url(#q)" d="M5.962.008h12.78a5.886 5.886 0 015.886 5.886v14.365a3.364 3.364 0 01-3.363 3.364H3.439a3.364 3.364 0 01-3.364-3.364V5.894A5.887 5.887 0 015.962.008z"/><path fill="url(#r)" d="M5.962.008h12.78a5.886 5.886 0 015.886 5.886v14.365a3.364 3.364 0 01-3.363 3.364H3.439a3.364 3.364 0 01-3.364-3.364V5.894A5.887 5.887 0 015.962.008z"/><circle cx="11.894" cy="12.321" r="8.669" fill="#1B283E"/></g><g transform="rotate(1 -3314.952 2444.862)"><circle cx="9.289" cy="9.289" r="9.289" fill="#328AF1" filter="url(#Y)" opacity=".842"/><circle cx="9.487" cy="9.671" r="4.954" fill="url(#t)" transform="scale(1 -1) rotate(4 286.43 0)"/><g style="mix-blend-mode:soft-light" fill="#FFF"><path d="M7.754 8.555l.787.787a.45.45 0 01-.637.637l-.787-.787a.45.45 0 01.636-.636zM9.497 10.3l1.718 1.718a.45.45 0 11-.636.636L8.86 10.936a.45.45 0 01.637-.636z"/><path d="M7.309 8.442l4.852-1.364a.43.43 0 01.53.298l.003.01c.06.237-.08.48-.316.546L7.526 9.296a.431.431 0 01-.53-.298l-.003-.01a.451.451 0 01.316-.546z"/><path d="M10.478 12.247l1.363-4.852a.452.452 0 01.546-.316.43.43 0 01.312.524l-.003.01-1.363 4.852a.452.452 0 01-.548.315.43.43 0 01-.31-.523l.003-.01zm-.096-2.231l-1.804 1.803a.438.438 0 11-.62-.619l1.804-1.803a.438.438 0 11.62.619zm-2.643 2.643l-.296.295a.438.438 0 11-.62-.62l.296-.295a.438.438 0 11.62.62z"/></g><path fill="#FFF" fill-opacity=".547" d="M5.637 10.088a4.12 4.12 0 001.986 3.111 4.128 4.128 0 015.145-6.352 4.129 4.129 0 00-7.131 3.24z" style="mix-blend-mode:lighten" opacity=".58"/></g><ellipse cx="51.52" cy="36.064" fill="#0F1826" rx="48.832" ry="4.256"/><g transform="translate(25.869 14.344)"><path fill="url(#u)" d="M12.39 0h26.75c6.721 0 12.17 5.45 12.17 12.172v28.16c0 8.066-6.54 14.606-14.606 14.606H14.823c-8.066 0-14.606-6.54-14.606-14.606v-28.16C.217 5.45 5.667 0 12.39 0z"/><path fill="url(#v)" d="M12.39 0h26.75c6.721 0 12.17 5.45 12.17 12.172v28.16c0 8.066-6.54 14.606-14.606 14.606H14.823c-8.066 0-14.606-6.54-14.606-14.606v-28.16C.217 5.45 5.667 0 12.39 0z" opacity=".705"/><ellipse cx="10.853" cy="4.7" fill="url(#w)" rx="1.609" ry="1.635"/><path fill="url(#x)" d="M1.22 34.159c0 8.066 6.54 14.606 14.606 14.606h19.932c8.067 0 14.606-6.54 14.606-14.606v6.602c0 8.066-6.54 14.606-14.606 14.606H15.826c-8.066 0-14.606-6.54-14.606-14.606z" opacity=".405"/><g transform="translate(5.232 8.174)"><use fill="#111B2C" xlink:href="#Z"/><mask id="ab" fill="#fff"><use xlink:href="#aa"/></mask><path stroke="url(#A)" stroke-width=".867" d="M35.76.433c1.448 0 2.76.588 3.71 1.537a5.232 5.232 0 011.536 3.71h0v24.124a5.231 5.231 0 01-.915 2.96 5.231 5.231 0 01-2.426 1.929c-3.548 1.383-8.96 2.066-16.233 2.066-7.718 0-13.599-.77-17.638-2.327a5.24 5.24 0 01-3.36-4.896h0V5.68c0-1.449.587-2.76 1.536-3.71A5.229 5.229 0 015.68.433h0z"/><ellipse cx="11.666" cy="6.948" fill="url(#B)" mask="url(#ab)" opacity=".356" rx="22.93" ry="23.296"/></g><path d="M31.236 5.803h-1.294a.648.648 0 01-.64-.654c0-.36.287-.654.64-.654h1.294c.354 0 .64.293.64.654a.647.647 0 01-.64.654zm2.413-1.798h-1.292a.648.648 0 01-.641-.654c0-.361.287-.654.64-.654h1.293c.354 0 .641.293.641.654a.648.648 0 01-.64.654zm6.597 1.798h-7.08a.65.65 0 01-.646-.654c0-.36.29-.654.645-.654h7.077a.65.65 0 01.646.654.65.65 0 01-.646.654h.004zm2.385-1.798h-7.027a.662.662 0 01-.67-.654c0-.361.3-.654.67-.654h7.027c.37 0 .67.293.67.654 0 .361-.3.654-.67.654z" fill="#243552"/></g><g transform="rotate(-1 1959.585 -1903.361)"><use fill="#000" filter="url(#ac)" xlink:href="#ad"/><use fill="url(#F)" xlink:href="#ad"/></g><path fill="#00FFEC" d="M7.594 3.558H27.42a1.33 1.33 0 010 2.66H7.594a1.33 1.33 0 010-2.66z" filter="url(#ae)" transform="rotate(-1 1959.585 -1903.361)"/><g transform="rotate(-1 1554.941 -1181.073)"><ellipse cx="15.466" cy="11.813" fill="url(#H)" opacity=".398" rx="11.342" ry="11.299"/><path fill="url(#I)" d="M14.917 1.724l-8.592 16.38 6.813 4.311 8.684-18.392z" opacity=".396"/><ellipse cx="44.851" cy="11.813" fill="url(#H)" opacity=".398" rx="11.342" ry="11.299"/><path fill="url(#I)" d="M44.243 1.724l-8.592 16.38 6.813 4.311 8.684-18.392z" opacity=".396"/><path fill="#111B2C" stroke="#111B2C" stroke-width=".803" d="M44.608 22.497c-5.796 0-10.495-4.669-10.495-10.428 0-5.758 4.699-10.427 10.495-10.427 5.795 0 10.494 4.669 10.494 10.427 0 5.76-4.699 10.428-10.494 10.428zm-29.304 0c-5.796 0-10.494-4.669-10.494-10.428 0-5.758 4.698-10.427 10.494-10.427 5.796 0 10.494 4.669 10.494 10.427 0 5.76-4.698 10.428-10.494 10.428zM55.699 5.674c-.877-1.005-2.541-2.307-3.538-3.051a12.174 12.174 0 00-.792-.58l-.017-.013v.001A12.157 12.157 0 0044.608 0a12.15 12.15 0 00-8.605 3.55c-1.065.989-1.982 2.071-2.932 3.132-1.202 1.344-1.913.684-3.115.684-1.202 0-1.914.66-3.116-.684-.949-1.06-1.867-2.143-2.932-3.132A12.236 12.236 0 0015.267 0c-2.496 0-4.963.749-6.782 2.031h0l.02.012c-.274.182-.519.377-.775.58-.997.744-2.705 2.046-3.581 3.05C2.846 7.168 0 7.268 0 7.268v3.085s1.704-.1 2.254.548c.326.382.677 2.22 1.25 4.144.175.685.424 1.346.71 1.979.269.629.583 1.212.94 1.69l.005-.003a12.156 12.156 0 0010.143 5.429c4.922 0 9.158-2.91 11.067-7.092l.01-.012.028-.047c.872-1.47 1.75-5.498 2.146-6.138.4-.647 1.403-.697 1.403-.697s1.002.05 1.402.697c.397.64 1.275 4.668 2.147 6.138l.028.047.009.012a12.15 12.15 0 0011.066 7.092c4.239 0 7.968-2.159 10.141-5.429l.001.003c.359-.478.666-1.06.934-1.69.287-.633.523-1.294.698-1.98.573-1.923.895-3.761 1.22-4.143.551-.647 2.2-.548 2.2-.548V7.267s-2.8-.1-4.103-1.593h0z"/></g><path fill="#0F1826" d="M20 34h63v5H20z" opacity=".615"/><path fill="#233452" d="M43.293 2.015L3.642 34.272l95-1.085L58.989 2.015z"/><path fill="#1B283E" d="M43.059 2.912C17.736 22.397 5.312 32.14 5.786 32.14c.475 0 4.586-.11 12.333-.332L43.226 2.912h-.167z"/><path fill="url(#J)" d="M37.462.896C12.139 20.381-.285 30.124.189 30.124c.475 0 4.586-.11 12.333-.332L37.629.896h-.167z" opacity=".464" style="mix-blend-mode:hard-light" transform="translate(5.597 2.016)"/><path fill="#121D2F" d="M97.437 32.071c-.475 0-4.502-.088-12.08-.263L60.25 2.912c25.266 19.44 37.662 29.16 37.187 29.16z"/><path fill="url(#K)" d="M54.666 30.055c.475 0 4.502-.088 12.08-.263L91.853.896c-25.266 19.44-37.662 29.16-37.187 29.16z" opacity=".542" style="mix-blend-mode:lighten" transform="matrix(-1 0 0 1 152.103 2.016)"/><path fill="#233452" d="M42.761 2.49L16.346 32.526h15.831L48.134 2.49z"/><path fill="url(#L)" opacity=".464" style="mix-blend-mode:hard-light" d="M37.164.474L10.749 30.51H26.58L42.537.474z" transform="translate(5.597 2.016)"/><path fill="#1B283E" d="M59.719 2.317l26.962 30.209H71.076L55.555 2.317z"/><path fill="url(#M)" opacity=".295" style="mix-blend-mode:lighten" d="M76.921.301L49.959 30.51h15.605L81.085.301z" transform="matrix(-1 0 0 1 136.64 2.016)"/><path fill="url(#N)" d="M40.713.474L25.98 30.51h21.952L46.144.474h-5.431z" transform="translate(5.597 2.016)"/><path fill="url(#O)" d="M40.713.474L25.98 30.51h21.952L46.144.474h-5.431z" opacity=".33" style="mix-blend-mode:hard-light" transform="translate(5.597 2.016)"/><path fill="#233452" d="M57.173 2.316l14.724 30.157h-21.95l1.794-30.157h5.432z"/><path fill="url(#P)" d="M59.074.3L44.35 30.457H66.3L64.506.3h-5.432z" opacity=".341" style="mix-blend-mode:lighten" transform="matrix(-1 0 0 1 116.247 2.016)"/><path fill="#0F1826" d="M6.774 31.808h89.704c.476 0 .938.169 1.302.477l2.348 1.987a1.397 1.397 0 01-.903 2.464H3.905a1.387 1.387 0 01-.876-2.464l2.473-2.012a2.016 2.016 0 011.272-.452z"/><use fill="#000" filter="url(#af)" xlink:href="#ag"/><use fill="url(#S)" xlink:href="#ag"/><rect width="18.368" height="2.688" x="42.112" fill="#0F1826" rx="1.344"/><g><use fill="#000" filter="url(#ah)" xlink:href="#ai"/><use fill="url(#V)" xlink:href="#ai"/></g></g><g style="mix-blend-mode:luminosity" transform="translate(40 2)"><path fill="#233452" d="M86.09 58.975l2.534 2.534c.7.7.7 1.835 0 2.534l-52.902 52.903a7.168 7.168 0 01-10.138 0l57.972-57.971c.7-.7 1.834-.7 2.534 0z"/><path fill="url(#a)" d="M30.41 3.173h3.584c.99 0 1.792.803 1.792 1.792v74.816c0 3.96-3.21 7.168-7.168 7.168V4.965c0-.99.802-1.792 1.792-1.792z" transform="rotate(45 -9.108 98.286)"/><path fill="url(#b)" d="M30.41 3.173h3.584c.99 0 1.792.803 1.792 1.792v74.816c0 3.96-3.21 7.168-7.168 7.168V4.965c0-.99.802-1.792 1.792-1.792z" opacity=".355" style="mix-blend-mode:hard-light" transform="rotate(45 -9.108 98.286)"/><path fill="#090F19" d="M81.526 60.956l-3.044 3.184 5.993 4.036 2.119-2.151z"/><path fill="#1B283E" d="M98.949 46.067l2.534 2.534c.7.7.7 1.835 0 2.535L89.129 63.49a3.584 3.584 0 11-5.069-5.068l12.356-12.355c.7-.7 1.834-.7 2.534 0z"/><path fill="url(#c)" d="M73.372 1.227l2.533 2.533a1.791 1.791 0 01-.042 2.574l-1.156 1.084-5.069-5.068 1.242-1.164a1.792 1.792 0 012.492.04z" opacity=".705" transform="translate(25.536 44.8)"/><path fill="url(#d)" d="M73.372 1.227l2.533 2.533a1.791 1.791 0 01-.042 2.574l-1.156 1.084-5.069-5.068 1.242-1.164a1.792 1.792 0 012.492.04z" opacity=".355" style="mix-blend-mode:hard-light" transform="translate(25.536 44.8)"/><path fill="#233452" d="M79.001 53.309l15.733 15.343-.294.294a3.583 3.583 0 01-5.036.031L78.803 58.64a3.583 3.583 0 01-.064-5.068l.031-.032.23-.23z"/><path fill="url(#e)" d="M53.465 8.509l15.733 15.343-.294.294a3.583 3.583 0 01-5.036.031L53.267 13.84a3.583 3.583 0 01-.064-5.068l.031-.032.23-.23z" opacity=".355" style="mix-blend-mode:hard-light" transform="translate(25.536 44.8)"/><path fill="#121D2F" d="M79.215 63.349l7.003 3.054-2.168 2.249-6.563-3.471z"/><path fill="#1B283E" d="M81.526 60.956l3.26 6.731-1.684 1.72-3.492-6.816z"/><path stroke="url(#f)" stroke-width=".5" d="M54.074 23.376L5.824 71.318" opacity=".386" transform="translate(25.536 44.8)"/><path fill="#121D2F" d="M90.618 61.95l-2.543-7.576 3.14-2.975 2.508 7.57z"/><path fill="#233452" d="M83.998 58.502l8.378 1.779 2.358-2.573-8.14-1.603zm11.726-1.827l-2.5-7.175 1.95-1.852 2.885 6.856z"/><path fill="#1B283E" d="M16.094 73.492h69.058a7.568 7.568 0 017.474 8.759l-5.472 34.332a15.137 15.137 0 01-14.948 12.754H29.04a15.136 15.136 0 01-14.947-12.754L8.62 82.251a7.568 7.568 0 017.474-8.759z"/><path fill="url(#g)" d="M11.232 14.527h73.78a7.568 7.568 0 017.454 8.882l-5.647 32.047a15.136 15.136 0 01-14.907 12.51h-47.58a15.136 15.136 0 01-14.906-12.51L3.779 23.409a7.567 7.567 0 017.453-8.882z" transform="translate(2.501 55.355)"/><path fill="url(#h)" d="M11.232 14.527h73.78a7.568 7.568 0 017.454 8.882l-5.647 32.047a15.136 15.136 0 01-14.907 12.51h-47.58a15.136 15.136 0 01-14.906-12.51L3.779 23.409a7.567 7.567 0 017.453-8.882z" opacity=".705" transform="translate(2.501 55.355)"/><path fill="#1B283E" d="M28.777 96.955h42.955a1.15 1.15 0 110 2.3H28.777a1.15 1.15 0 010-2.3z"/><g transform="translate(2.501 55.355)"><use fill="#000" filter="url(#aj)" xlink:href="#ak"/><use fill="url(#k)" xlink:href="#ak"/></g><path fill="#1B283E" d="M29.379 105.377h42.955a1.15 1.15 0 010 2.3H29.379a1.15 1.15 0 010-2.3zm-16.246 3.427l1.151 1.659h73.042l.815-1.428a1.386 1.386 0 012.588.686 5.222 5.222 0 01-5.222 5.222H16.223a5.675 5.675 0 01-5.657-5.222 1.412 1.412 0 012.567-.917z"/><path fill="url(#l)" d="M23.82 15.128h49.54a7.568 7.568 0 017.215 9.853l-.736 2.325a15.137 15.137 0 01-14.43 10.569H31.77c-6.6 0-12.439-4.277-14.43-10.569l-.737-2.325a7.57 7.57 0 017.216-9.853z" transform="translate(2.501 55.355)"/><path fill="url(#m)" d="M11.852 15.128H85a7.568 7.568 0 016.943 10.581l-1.325 3.053a15.136 15.136 0 01-13.886 9.113H20.12a15.137 15.137 0 01-13.887-9.113L4.91 25.709a7.567 7.567 0 016.943-10.581z" transform="translate(2.501 55.355)"/><path fill="url(#n)" d="M11.852 15.128H85a7.568 7.568 0 016.943 10.581l-1.325 3.053a15.136 15.136 0 01-13.886 9.113H20.12a15.137 15.137 0 01-13.887-9.113L4.91 25.709a7.567 7.567 0 016.943-10.581z" transform="translate(2.501 55.355)"/><path fill="url(#o)" d="M11.852 15.128H85a7.568 7.568 0 016.943 10.581l-1.325 3.053a15.136 15.136 0 01-13.886 9.113H20.12a15.137 15.137 0 01-13.887-9.113L4.91 25.709a7.567 7.567 0 016.943-10.581z" opacity=".328" style="mix-blend-mode:hard-light" transform="translate(2.501 55.355)"/><path fill="#233452" d="M24.045 69.875l-12.037-.115a6.72 6.72 0 00-6.295 4.201l-1.906 4.715a6.714 6.714 0 00.184 5.452l5.417 11.164.537-1.832a21.053 21.053 0 0111.119-13.07l21.931-10.495-18.95-.02z"/><path fill="url(#p)" d="M21.544 14.52l-12.037-.115a6.72 6.72 0 00-6.295 4.201l-1.906 4.715a6.714 6.714 0 00.184 5.452l5.417 11.164.537-1.832a21.053 21.053 0 0111.119-13.07L40.494 14.54l-18.95-.02z" opacity=".328" style="mix-blend-mode:hard-light" transform="translate(2.501 55.355)"/><path fill="#233452" d="M77.18 69.716h12.094a6.718 6.718 0 016.23 4.201l1.924 4.76a6.712 6.712 0 01-.184 5.451l-5.417 11.164-.537-1.832a21.053 21.053 0 00-11.119-13.07L58.24 69.895l18.94-.18z"/><path fill="url(#p)" d="M77.106 14.361H65.012a6.718 6.718 0 00-6.23 4.201l-1.924 4.76a6.712 6.712 0 00.184 5.451l5.417 11.164.537-1.832a21.053 21.053 0 0111.119-13.07L96.046 14.54l-18.94-.18z" opacity=".328" style="mix-blend-mode:hard-light" transform="matrix(-1 0 0 1 154.286 55.355)"/><path fill="#1B283E" d="M6.931 75.661a6.533 6.533 0 00.583 4.39l.706 1.37a15.137 15.137 0 0013.453 8.199h58.03a15.137 15.137 0 0013.453-8.2l.705-1.368a6.556 6.556 0 00.585-4.387 7.56 7.56 0 01-.241 5.399l-1.324 3.053a15.137 15.137 0 01-13.886 9.113H22.381c-6.03 0-11.486-3.58-13.886-9.113L7.17 81.064a7.539 7.539 0 01-.292-5.232z" opacity=".504"/><path fill="#1B283E" d="M41.087 73.492h20.566c1.831 0 3.6.663 4.979 1.868l3.364 2.938a2.743 2.743 0 01-1.803 4.807H34.547a2.742 2.742 0 01-1.804-4.807l3.365-2.938a7.566 7.566 0 014.979-1.868z"/><g transform="translate(39.395 55.355)"><path fill="url(#q)" d="M5.962.008h12.78a5.886 5.886 0 015.886 5.886v14.365a3.364 3.364 0 01-3.363 3.364H3.439a3.364 3.364 0 01-3.364-3.364V5.894A5.887 5.887 0 015.962.008z"/><path fill="url(#r)" d="M5.962.008h12.78a5.886 5.886 0 015.886 5.886v14.365a3.364 3.364 0 01-3.363 3.364H3.439a3.364 3.364 0 01-3.364-3.364V5.894A5.887 5.887 0 015.962.008z"/><circle cx="11.894" cy="12.321" r="8.669" fill="#1B283E"/></g><g transform="rotate(1 -3314.952 2444.862)"><circle cx="9.289" cy="9.289" r="9.289" fill="#328AF1" filter="url(#al)" opacity=".842"/><circle cx="9.487" cy="9.671" r="4.954" fill="url(#t)" transform="scale(1 -1) rotate(4 286.43 0)"/><g style="mix-blend-mode:soft-light" fill="#FFF"><path d="M7.754 8.555l.787.787a.45.45 0 01-.637.637l-.787-.787a.45.45 0 01.636-.636zM9.497 10.3l1.718 1.718a.45.45 0 11-.636.636L8.86 10.936a.45.45 0 01.637-.636z"/><path d="M7.309 8.442l4.852-1.364a.43.43 0 01.53.298l.003.01c.06.237-.08.48-.316.546L7.526 9.296a.431.431 0 01-.53-.298l-.003-.01a.451.451 0 01.316-.546z"/><path d="M10.478 12.247l1.363-4.852a.452.452 0 01.546-.316.43.43 0 01.312.524l-.003.01-1.363 4.852a.452.452 0 01-.548.315.43.43 0 01-.31-.523l.003-.01zm-.096-2.231l-1.804 1.803a.438.438 0 11-.62-.619l1.804-1.803a.438.438 0 11.62.619zm-2.643 2.643l-.296.295a.438.438 0 11-.62-.62l.296-.295a.438.438 0 11.62.62z"/></g><path fill="#FFF" fill-opacity=".547" d="M5.637 10.088a4.12 4.12 0 001.986 3.111 4.128 4.128 0 015.145-6.352 4.129 4.129 0 00-7.131 3.24z" style="mix-blend-mode:lighten" opacity=".58"/></g><ellipse cx="51.52" cy="36.064" fill="#0F1826" rx="48.832" ry="4.256"/><g transform="translate(25.869 14.344)"><path fill="url(#u)" d="M12.39 0h26.75c6.721 0 12.17 5.45 12.17 12.172v28.16c0 8.066-6.54 14.606-14.606 14.606H14.823c-8.066 0-14.606-6.54-14.606-14.606v-28.16C.217 5.45 5.667 0 12.39 0z"/><path fill="url(#v)" d="M12.39 0h26.75c6.721 0 12.17 5.45 12.17 12.172v28.16c0 8.066-6.54 14.606-14.606 14.606H14.823c-8.066 0-14.606-6.54-14.606-14.606v-28.16C.217 5.45 5.667 0 12.39 0z" opacity=".705"/><ellipse cx="10.853" cy="4.7" fill="url(#w)" rx="1.609" ry="1.635"/><path fill="url(#x)" d="M1.22 34.159c0 8.066 6.54 14.606 14.606 14.606h19.932c8.067 0 14.606-6.54 14.606-14.606v6.602c0 8.066-6.54 14.606-14.606 14.606H15.826c-8.066 0-14.606-6.54-14.606-14.606z" opacity=".405"/><g transform="translate(5.232 8.174)"><use fill="#111B2C" xlink:href="#am"/><mask id="ao" fill="#fff"><use xlink:href="#an"/></mask><path stroke="url(#A)" stroke-width=".867" d="M35.76.433c1.448 0 2.76.588 3.71 1.537a5.232 5.232 0 011.536 3.71h0v24.124a5.231 5.231 0 01-.915 2.96 5.231 5.231 0 01-2.426 1.929c-3.548 1.383-8.96 2.066-16.233 2.066-7.718 0-13.599-.77-17.638-2.327a5.24 5.24 0 01-3.36-4.896h0V5.68c0-1.449.587-2.76 1.536-3.71A5.229 5.229 0 015.68.433h0z"/><ellipse cx="11.666" cy="6.948" fill="url(#B)" mask="url(#ao)" opacity=".356" rx="22.93" ry="23.296"/></g><path d="M31.236 5.803h-1.294a.648.648 0 01-.64-.654c0-.36.287-.654.64-.654h1.294c.354 0 .64.293.64.654a.647.647 0 01-.64.654zm2.413-1.798h-1.292a.648.648 0 01-.641-.654c0-.361.287-.654.64-.654h1.293c.354 0 .641.293.641.654a.648.648 0 01-.64.654zm6.597 1.798h-7.08a.65.65 0 01-.646-.654c0-.36.29-.654.645-.654h7.077a.65.65 0 01.646.654.65.65 0 01-.646.654h.004zm2.385-1.798h-7.027a.662.662 0 01-.67-.654c0-.361.3-.654.67-.654h7.027c.37 0 .67.293.67.654 0 .361-.3.654-.67.654z" fill="#243552"/></g><g transform="rotate(-1 1959.585 -1903.361)"><use fill="#000" filter="url(#ap)" xlink:href="#aq"/><use fill="url(#F)" xlink:href="#aq"/></g><path fill="#00FFEC" d="M7.594 3.558H27.42a1.33 1.33 0 010 2.66H7.594a1.33 1.33 0 010-2.66z" filter="url(#ar)" transform="rotate(-1 1959.585 -1903.361)"/><g transform="rotate(-1 1554.941 -1181.073)"><ellipse cx="15.466" cy="11.813" fill="url(#H)" opacity=".398" rx="11.342" ry="11.299"/><path fill="url(#I)" d="M14.917 1.724l-8.592 16.38 6.813 4.311 8.684-18.392z" opacity=".396"/><ellipse cx="44.851" cy="11.813" fill="url(#H)" opacity=".398" rx="11.342" ry="11.299"/><path fill="url(#I)" d="M44.243 1.724l-8.592 16.38 6.813 4.311 8.684-18.392z" opacity=".396"/><path fill="#111B2C" stroke="#111B2C" stroke-width=".803" d="M44.608 22.497c-5.796 0-10.495-4.669-10.495-10.428 0-5.758 4.699-10.427 10.495-10.427 5.795 0 10.494 4.669 10.494 10.427 0 5.76-4.699 10.428-10.494 10.428zm-29.304 0c-5.796 0-10.494-4.669-10.494-10.428 0-5.758 4.698-10.427 10.494-10.427 5.796 0 10.494 4.669 10.494 10.427 0 5.76-4.698 10.428-10.494 10.428zM55.699 5.674c-.877-1.005-2.541-2.307-3.538-3.051a12.174 12.174 0 00-.792-.58l-.017-.013v.001A12.157 12.157 0 0044.608 0a12.15 12.15 0 00-8.605 3.55c-1.065.989-1.982 2.071-2.932 3.132-1.202 1.344-1.913.684-3.115.684-1.202 0-1.914.66-3.116-.684-.949-1.06-1.867-2.143-2.932-3.132A12.236 12.236 0 0015.267 0c-2.496 0-4.963.749-6.782 2.031h0l.02.012c-.274.182-.519.377-.775.58-.997.744-2.705 2.046-3.581 3.05C2.846 7.168 0 7.268 0 7.268v3.085s1.704-.1 2.254.548c.326.382.677 2.22 1.25 4.144.175.685.424 1.346.71 1.979.269.629.583 1.212.94 1.69l.005-.003a12.156 12.156 0 0010.143 5.429c4.922 0 9.158-2.91 11.067-7.092l.01-.012.028-.047c.872-1.47 1.75-5.498 2.146-6.138.4-.647 1.403-.697 1.403-.697s1.002.05 1.402.697c.397.64 1.275 4.668 2.147 6.138l.028.047.009.012a12.15 12.15 0 0011.066 7.092c4.239 0 7.968-2.159 10.141-5.429l.001.003c.359-.478.666-1.06.934-1.69.287-.633.523-1.294.698-1.98.573-1.923.895-3.761 1.22-4.143.551-.647 2.2-.548 2.2-.548V7.267s-2.8-.1-4.103-1.593h0z"/></g><path fill="#0F1826" d="M20 34h63v5H20z" opacity=".615"/><path fill="#233452" d="M43.293 2.015L3.642 34.272l95-1.085L58.989 2.015z"/><path fill="#1B283E" d="M43.059 2.912C17.736 22.397 5.312 32.14 5.786 32.14c.475 0 4.586-.11 12.333-.332L43.226 2.912h-.167z"/><path fill="url(#J)" d="M37.462.896C12.139 20.381-.285 30.124.189 30.124c.475 0 4.586-.11 12.333-.332L37.629.896h-.167z" opacity=".464" style="mix-blend-mode:hard-light" transform="translate(5.597 2.016)"/><path fill="#121D2F" d="M97.437 32.071c-.475 0-4.502-.088-12.08-.263L60.25 2.912c25.266 19.44 37.662 29.16 37.187 29.16z"/><path fill="url(#K)" d="M54.666 30.055c.475 0 4.502-.088 12.08-.263L91.853.896c-25.266 19.44-37.662 29.16-37.187 29.16z" opacity=".542" style="mix-blend-mode:lighten" transform="matrix(-1 0 0 1 152.103 2.016)"/><path fill="#233452" d="M42.761 2.49L16.346 32.526h15.831L48.134 2.49z"/><path fill="url(#L)" opacity=".464" style="mix-blend-mode:hard-light" d="M37.164.474L10.749 30.51H26.58L42.537.474z" transform="translate(5.597 2.016)"/><path fill="#1B283E" d="M59.719 2.317l26.962 30.209H71.076L55.555 2.317z"/><path fill="url(#M)" opacity=".295" style="mix-blend-mode:lighten" d="M76.921.301L49.959 30.51h15.605L81.085.301z" transform="matrix(-1 0 0 1 136.64 2.016)"/><path fill="url(#N)" d="M40.713.474L25.98 30.51h21.952L46.144.474h-5.431z" transform="translate(5.597 2.016)"/><path fill="url(#O)" d="M40.713.474L25.98 30.51h21.952L46.144.474h-5.431z" opacity=".33" style="mix-blend-mode:hard-light" transform="translate(5.597 2.016)"/><path fill="#233452" d="M57.173 2.316l14.724 30.157h-21.95l1.794-30.157h5.432z"/><path fill="url(#P)" d="M59.074.3L44.35 30.457H66.3L64.506.3h-5.432z" opacity=".341" style="mix-blend-mode:lighten" transform="matrix(-1 0 0 1 116.247 2.016)"/><path fill="#0F1826" d="M6.774 31.808h89.704c.476 0 .938.169 1.302.477l2.348 1.987a1.397 1.397 0 01-.903 2.464H3.905a1.387 1.387 0 01-.876-2.464l2.473-2.012a2.016 2.016 0 011.272-.452z"/><use fill="#000" filter="url(#as)" xlink:href="#at"/><use fill="url(#S)" xlink:href="#at"/><rect width="18.368" height="2.688" x="42.112" fill="#0F1826" rx="1.344"/><g><use fill="#000" filter="url(#au)" xlink:href="#av"/><use fill="url(#V)" xlink:href="#av"/></g></g></g></svg>